<?xml version="1.0" encoding="UTF-8" standalone="no"?>
<svg xmlns:dc="http://purl.org/dc/elements/1.1/" xmlns:cc="http://creativecommons.org/ns#" xmlns:rdf="http://www.w3.org/1999/02/22-rdf-syntax-ns#" xmlns:svg="http://www.w3.org/2000/svg" xmlns="http://www.w3.org/2000/svg" xmlns:sodipodi="http://sodipodi.sourceforge.net/DTD/sodipodi-0.dtd" xmlns:inkscape="http://www.inkscape.org/namespaces/inkscape" viewBox="0 0 1000 858.27199" height="858.27197" width="1000" xml:space="preserve" id="svg2" version="1.1" inkscape:version="0.92.2 (5c3e80d, 2017-08-06)" sodipodi:docname="Fujifilm 1980.svg"><sodipodi:namedview pagecolor="#ffffff" bordercolor="#666666" borderopacity="1" objecttolerance="10" gridtolerance="10" guidetolerance="10" inkscape:pageopacity="0" inkscape:pageshadow="2" inkscape:window-width="1366" inkscape:window-height="705" id="namedview12" showgrid="false" inkscape:zoom="0.35355339" inkscape:cx="343.11542" inkscape:cy="465.17015" inkscape:window-x="-8" inkscape:window-y="-8" inkscape:window-maximized="1" inkscape:current-layer="svg2"/><metadata id="metadata8"><rdf:RDF><cc:Work rdf:about=""><dc:format>image/svg+xml</dc:format><dc:type rdf:resource="http://purl.org/dc/dcmitype/StillImage"/><dc:title/></cc:Work></rdf:RDF></metadata><defs id="defs6"/><path id="path16" style="fill:#ff0000;fill-opacity:1;fill-rule:evenodd;stroke:none;stroke-width:5.34510994" d="M 694.68198,205.20378 V 514.18484 H 806.76359 V 205.20378 H 694.68198 v 0" inkscape:connector-curvature="0"/><path id="path18" style="fill:#ff0000;fill-opacity:1;fill-rule:evenodd;stroke:none;stroke-width:5.34510994" d="M 663.15652,205.20378 H 551.07491 v 220.5318 c 0,54.24858 -8.17267,119.11255 -98.07475,119.11255 H 38.526538 L 172.79345,660.42117 h 316.40326 v 0 C 607.11304,658.06185 663.15652,548.385 663.15652,484.70068 v -279.4969" inkscape:connector-curvature="0"/><path id="path20" style="fill:#ff0000;fill-opacity:1;fill-rule:evenodd;stroke:none;stroke-width:5.34510994" d="M 837.12917,178.98068 V 691.98673 H 206.07906 l 194.97518,166.2853 h 532.3938 v 0 C 976.64722,858.27203 1000,828.7884 1000,793.40805 V 320.49781 L 837.12917,178.98068 v 0" inkscape:connector-curvature="0"/><path id="path22" style="fill:#ff0000;fill-opacity:1;fill-rule:evenodd;stroke:none;stroke-width:5.34510994" d="M 226.50111,439.88782 V 323.13295 H 179.80036 V 514.18484 H 0 V 77.83516 C 0,55.428467 25.685766,-3.3187652e-4 74.722981,-3.3187652e-4 H 626.96478 L 828.94579,172.1817 H 226.50111 v 0 c -17.51378,0 -47.87026,-1.18128 -47.87026,33.02208 h 159.95242 v 181.61619 c 0,45.99146 67.71827,45.99146 67.71827,-1.18127 V 205.20378 h 112.08001 v 238.2209 c 0,48.35454 -22.18222,70.76016 -66.54876,70.76016 H 295.38623 v 0 c -43.20132,0 -68.88512,-22.40562 -68.88512,-74.29702 v 0" inkscape:connector-curvature="0"/></svg>